<?xml version="1.0" encoding="utf-8"?>
<!-- Generator: Adobe Illustrator 15.0.0, SVG Export Plug-In . SVG Version: 6.00 Build 0)  -->
<!DOCTYPE svg PUBLIC "-//W3C//DTD SVG 1.1//EN" "http://www.w3.org/Graphics/SVG/1.1/DTD/svg11.dtd">
<svg version="1.1" id="Layer_1" xmlns="http://www.w3.org/2000/svg" xmlns:xlink="http://www.w3.org/1999/xlink" x="0px" y="0px"
	 width="377.109px" height="377.11px" viewBox="0 0 377.109 377.11" enable-background="new 0 0 377.109 377.11"
	 xml:space="preserve">
<g>
	<path fill="none" stroke="#000000" stroke-width="5.05" d="M188.555,374.585c102.741,0,186.029-83.288,186.029-186.03
		c0-102.741-83.288-186.03-186.029-186.03c-102.741,0-186.03,83.289-186.03,186.03C2.525,291.297,85.814,374.585,188.555,374.585
		L188.555,374.585z"/>
	<animateTransform attributeType="xml" attributeName="transform" type="rotate" from="0 188.5 188.5" to="360 188.5 188.5" dur="300s" repeatCount="indefinite"/>
	<g>
		<path d="M67.54,188.554c0,4.867-1.9,8.8-5.7,11.8c-3.533,2.8-7.8,4.2-12.8,4.2c-5.1,0-9.4-1.366-12.9-4.1
			c-3.8-2.967-5.7-6.934-5.7-11.9c0-5,1.9-8.983,5.7-11.95c3.467-2.7,7.767-4.05,12.9-4.05c5.034,0,9.3,1.384,12.8,4.15
			C65.64,179.704,67.54,183.654,67.54,188.554z M63.49,188.554c0-2.7-0.866-5-2.6-6.9c-1.633-1.767-3.8-3-6.5-3.7
			c-1.566-0.4-3.383-0.6-5.45-0.6c-4.033,0-7.333,0.834-9.9,2.5c-3.033,1.967-4.55,4.867-4.55,8.7c0,3.8,1.517,6.7,4.55,8.7
			c2.567,1.667,5.867,2.5,9.9,2.5c3.934,0,7.233-0.851,9.9-2.55C61.94,195.171,63.49,192.287,63.49,188.554z"/>
	</g>
	<g>
		<path d="M68.043,104.528c2.713,1.566,4.508,3.858,5.385,6.872c0.877,3.015,0.53,5.882-1.042,8.604l-3.71,6.425l10.132,5.85
			c1.271,0.734,1.527,1.757,0.77,3.07c-0.297,0.514-0.755,0.84-1.373,0.977c-0.618,0.139-1.188,0.057-1.707-0.243l-27.799-16.05
			c-1.387-0.801-1.713-1.835-0.979-3.105l4.55-7.881c1.733-3.002,4.052-4.935,6.956-5.799
			C62.132,102.385,65.069,102.811,68.043,104.528z M52.266,116.954l12.99,7.5l3.223-5.582c1.142-1.977,1.457-3.945,0.945-5.908
			c-0.511-1.962-1.742-3.506-3.692-4.632c-1.921-1.109-3.811-1.396-5.669-0.859s-3.35,1.778-4.474,3.725L52.266,116.954z"/>
	</g>
	<g>
		<path d="M119.339,87.581l-15.8-27.366c-0.316-0.548-0.459-1.13-0.429-1.744c0.03-0.614,0.305-1.071,0.825-1.371l11.951-6.9
			c1.097-0.633,1.996-0.344,2.695,0.868c0.7,1.213,0.47,2.153-0.688,2.822l-9.65,5.571l5.5,9.526l9.174-5.296
			c1.158-0.669,2.067-0.434,2.726,0.707c0.659,1.141,0.408,2.045-0.751,2.714l-9.173,5.296l6.574,11.389l9.737-5.622
			c1.101-0.636,2.018-0.319,2.751,0.952c0.667,1.155,0.365,2.098-0.906,2.832l-11.431,6.6
			C121.174,89.292,120.139,88.967,119.339,87.581z"/>
	</g>
	<g>
		<path d="M174.117,65.721V33.133c0-1.604,0.624-2.406,1.872-2.406c1.018,0,1.872,0.516,2.562,1.546l19.203,27.533l0.113-0.079
			V33.136c0-0.669,0.197-1.238,0.593-1.707c0.396-0.468,0.924-0.702,1.583-0.702c1.516,0,2.274,0.802,2.274,2.406v32.587
			c0,1.538-0.667,2.306-2,2.306c-1.034,0-1.867-0.466-2.5-1.4l-19.25-27.598v26.79c0,1.472-0.759,2.208-2.274,2.208
			C174.842,68.027,174.117,67.258,174.117,65.721z"/>
	</g>
	<g>
		<path d="M247.778,80.906l16.15-27.973c0.8-1.386,1.856-1.7,3.169-0.941c1.257,0.725,1.485,1.781,0.685,3.167l-16.1,27.886
			c-0.834,1.443-1.878,1.802-3.135,1.077C247.235,83.363,246.979,82.292,247.778,80.906z"/>
	</g>
	<g>
		<path d="M287.513,114.925l28.222-16.294c1.39-0.802,2.396-0.663,3.021,0.418c0.509,0.882,0.489,1.879-0.059,2.992l-14.242,30.396
			l0.125,0.059l23.029-13.296c0.578-0.334,1.17-0.448,1.773-0.34c0.604,0.109,1.07,0.45,1.399,1.02
			c0.758,1.313,0.442,2.371-0.946,3.173l-28.222,16.294c-1.331,0.769-2.331,0.576-2.997-0.579c-0.518-0.896-0.529-1.85-0.038-2.865
			l14.275-30.471l-23.2,13.395c-1.275,0.736-2.291,0.448-3.049-0.866C285.878,116.706,286.182,115.693,287.513,114.925z"/>
	</g>
	<g>
		<path d="M330.376,191.463v10.1c0,1.4-0.434,2.283-1.3,2.65c-0.5,0.232-1.55,0.35-3.15,0.35c-5.199,0-9.3-1.25-12.3-3.75
			c-3.233-2.733-4.85-6.649-4.85-11.75c0-2.867,0.599-5.317,1.798-7.35c1.664-2.833,4.077-5.034,7.239-6.6
			c2.896-1.434,6.093-2.15,9.588-2.15c4.993,0,9.271,1.417,12.833,4.25c3.828,3.033,5.742,6.983,5.742,11.85
			c0,2.301-0.382,4.601-1.144,6.9c-0.895,2.732-2.104,4.666-3.627,5.8c-0.331,0.267-0.779,0.4-1.342,0.4
			c-1.259,0-1.888-0.733-1.888-2.2c0-0.6,0.194-1.167,0.585-1.7c1.464-2.067,2.407-3.708,2.83-4.925s0.635-2.643,0.635-4.275
			c0-3.533-1.593-6.367-4.776-8.5c-2.785-1.867-6.035-2.8-9.75-2.8c-3.781,0-7.08,0.917-9.898,2.75c-3.25,2.1-4.875,4.95-4.875,8.55
			c0,2.301,0.554,4.351,1.662,6.15s2.705,3.133,4.791,4c1.389,0.566,3.805,0.85,7.246,0.85v-8.6c0-1.4,0.676-2.1,2.026-2.1
			C329.734,189.363,330.376,190.063,330.376,191.463z"/>
	</g>
	<g>
		<path d="M322.133,263.313l3.5-6.063c0.284-0.491,0.69-0.824,1.221-0.998c0.53-0.176,1.043-0.119,1.54,0.168
			c0.497,0.286,0.799,0.71,0.904,1.271c0.104,0.561,0.006,1.101-0.294,1.62l-9.15,15.849c-0.733,1.27-1.669,1.576-2.81,0.918
			s-1.376-1.568-0.705-2.729l3.569-6.183l-26.459-15.276c-0.578-0.333-0.945-0.794-1.106-1.381c-0.16-0.588-0.075-1.167,0.254-1.737
			c0.297-0.514,0.755-0.84,1.371-0.979c0.617-0.138,1.186-0.058,1.706,0.243L322.133,263.313z"/>
	</g>
	<g>
		<path d="M251.501,295.667l16.15,27.974c0.8,1.385,0.543,2.457-0.77,3.215c-1.256,0.726-2.284,0.395-3.084-0.99l-16.101-27.887
			c-0.833-1.443-0.621-2.527,0.635-3.253C249.646,293.968,250.701,294.282,251.501,295.667z"/>
	</g>
	<g>
		<path d="M188.163,309.021c1.167,0,1.917,0.583,2.25,1.75l8.813,29.742l3.744-29.142c0.2-1.467,0.998-2.2,2.396-2.2
			c0.6,0,1.065,0.184,1.398,0.55c0.466,0.533,0.648,1.2,0.549,2l-4.299,31.35c-0.133,0.934-0.542,1.7-1.225,2.301
			c-0.683,0.6-1.507,0.899-2.474,0.899c-1.732,0-2.849-0.834-3.349-2.501l-7.755-26.699l-0.098,0.001l-7.756,26.698
			c-0.499,1.668-1.615,2.501-3.348,2.501c-0.966,0-1.791-0.3-2.474-0.899c-0.683-0.601-1.09-1.367-1.224-2.301l-4.299-31.35
			c-0.1-0.834,0.066-1.5,0.5-2c0.333-0.366,0.815-0.55,1.447-0.55c1.398,0,2.197,0.733,2.396,2.2l3.744,29.142l8.813-29.742
			C186.247,309.604,186.997,309.021,188.163,309.021z"/>
	</g>
	<g>
		<path d="M133.732,299.504l-15.8,27.366c-0.316,0.549-0.749,0.963-1.296,1.244c-0.546,0.281-1.08,0.271-1.6-0.029l-11.95-6.899
			c-1.098-0.634-1.296-1.556-0.596-2.769s1.629-1.484,2.789-0.814l9.648,5.57l5.5-9.525l-9.173-5.297
			c-1.159-0.669-1.409-1.574-0.75-2.714c0.659-1.141,1.566-1.376,2.726-0.706l9.173,5.295l6.575-11.388l-9.736-5.622
			c-1.101-0.635-1.285-1.588-0.551-2.857c0.667-1.155,1.636-1.366,2.904-0.633l11.433,6.6
			C134.297,297.06,134.532,298.118,133.732,299.504z"/>
	</g>
	<g>
		<path d="M51.261,267.009c-1.5-2.599-2.168-5.021-2.004-7.271c0.106-1.217,0.549-2.049,1.329-2.499
			c0.462-0.267,0.974-0.313,1.537-0.138s0.978,0.494,1.245,0.956c0.15,0.26,0.324,1.343,0.52,3.25
			c0.197,1.907,0.512,3.236,0.944,3.986c0.851,1.473,1.994,2.438,3.432,2.897c1.438,0.46,2.892,0.266,4.361-0.583
			c1.902-1.099,2.363-3.962,1.381-8.592c-0.762-3.718-1.01-6.441-0.742-8.175c0.403-2.695,1.96-4.826,4.669-6.391
			c3.027-1.748,6.001-2.137,8.924-1.168c2.922,0.968,5.268,2.982,7.034,6.042c1.033,1.791,1.784,3.725,2.252,5.802
			c0.617,2.801,0.231,4.601-1.154,5.4c-1.184,0.684-2.101,0.461-2.75-0.664c-0.183-0.316-0.286-0.759-0.31-1.322
			c0.021-0.357,0.028-0.901,0.022-1.63c-0.086-2.182-0.681-4.226-1.782-6.13c-0.933-1.617-2.357-2.652-4.271-3.104
			c-1.915-0.454-3.678-0.216-5.292,0.716c-2.075,1.198-3.006,3.314-2.794,6.347c0.418,2.454,0.844,4.921,1.277,7.405
			c0.482,4.493-1.036,7.755-4.552,9.785c-2.421,1.398-4.941,1.526-7.562,0.383C54.599,271.259,52.695,269.491,51.261,267.009z"/>
	</g>
</g>
</svg>
